<svg width="26" height="26" viewBox="0 0 26 26" fill="none" xmlns="http://www.w3.org/2000/svg">
<path d="M1 13C1 9.8174 2.26428 6.76516 4.51472 4.51472C6.76516 2.26428 9.8174 1 13 1C16.1826 1 19.2348 2.26428 21.4853 4.51472C23.7357 6.76516 25 9.8174 25 13V20.635C25 21.907 25 22.54 24.811 23.0485C24.6607 23.4514 24.4256 23.8174 24.1215 24.1215C23.8174 24.4256 23.4514 24.6607 23.0485 24.811C22.54 25 21.9055 25 20.635 25H13C9.8174 25 6.76516 23.7357 4.51472 21.4853C2.26428 19.2348 1 16.1826 1 13Z" stroke="black" stroke-width="2"/>
<path d="M8.5 11.5H17.5M13 17.5H17.5" stroke="black" stroke-width="2" stroke-linecap="round" stroke-linejoin="round"/>
</svg>
