<svg width="24" height="24" viewBox="0 0 24 24" fill="none" xmlns="http://www.w3.org/2000/svg">
<path d="M5 18.1686L10.5162 18.1498L22.5562 6.22484C23.0287 5.75234 23.2887 5.12484 23.2887 4.45734C23.2887 3.78984 23.0287 3.16234 22.5562 2.68984L20.5737 0.707344C19.6287 -0.237656 17.98 -0.232656 17.0425 0.703594L5 12.6311V18.1686ZM18.8062 2.47484L20.7925 4.45359L18.7962 6.43109L16.8137 4.44984L18.8062 2.47484ZM7.5 13.6736L15.0375 6.20734L17.02 8.18984L9.48375 15.6536L7.5 15.6598V13.6736Z" fill="black"/>
<path d="M2.5 23.1523H20C21.3787 23.1523 22.5 22.0311 22.5 20.6523V9.81734L20 12.3173V20.6523H6.4475C6.415 20.6523 6.38125 20.6648 6.34875 20.6648C6.3075 20.6648 6.26625 20.6536 6.22375 20.6523H2.5V3.15234H11.0588L13.5588 0.652344H2.5C1.12125 0.652344 0 1.77359 0 3.15234V20.6523C0 22.0311 1.12125 23.1523 2.5 23.1523Z" fill="black"/>
</svg>
