<svg width="26" height="26" viewBox="0 0 26 26" fill="none" xmlns="http://www.w3.org/2000/svg">
<path d="M7.52822 11.4348H1.9326C1.68526 11.4348 1.44805 11.5447 1.27315 11.7404C1.09826 11.9361 1 12.2015 1 12.4783V23.9565C1 24.2333 1.09826 24.4987 1.27315 24.6944C1.44805 24.8901 1.68526 25 1.9326 25H7.52822M7.52822 11.4348V25M7.52822 11.4348L12.1912 1C12.6811 1 13.1662 1.10796 13.6188 1.31772C14.0714 1.52748 14.4826 1.83493 14.829 2.22251C15.1754 2.61009 15.4502 3.07022 15.6377 3.57663C15.8252 4.08303 15.9216 4.62579 15.9216 5.17391V8.30435H23.1348C23.3993 8.30435 23.6607 8.36728 23.9018 8.48897C24.1429 8.61065 24.3581 8.78831 24.5331 9.01015C24.7081 9.23199 24.839 9.49295 24.917 9.7757C24.995 10.0584 25.0184 10.3565 24.9856 10.6502L23.5867 23.1719C23.5303 23.6766 23.3111 24.141 22.9703 24.4776C22.6295 24.8142 22.1905 25 21.7359 25H7.52822" stroke="black" stroke-width="2" stroke-linecap="round" stroke-linejoin="round"/>
</svg>
